<?xml version="1.0" encoding="UTF-8"?>
<svg version="1.1" xmlns="http://www.w3.org/2000/svg" width="709" height="727">
<path d="M0 0 C233.97 0 467.94 0 709 0 C709 239.91 709 479.82 709 727 C475.03 727 241.06 727 0 727 C0 487.09 0 247.18 0 0 Z " fill="#F6F6F6" transform="translate(0,0)"/>
<path d="M0 0 C3.67460901 3.62062695 6.98043885 7.35405781 10.125 11.4375 C11.09891917 12.68883257 12.07287861 13.94013379 13.046875 15.19140625 C13.53865234 15.82578613 14.03042969 16.46016602 14.53710938 17.11376953 C16.80749577 20.04117362 19.08907162 22.95972188 21.375 25.875 C21.82238525 26.44589355 22.26977051 27.01678711 22.73071289 27.60498047 C26.2907583 32.13251836 29.91928627 36.60175868 33.5625 41.0625 C37.4667889 45.84392621 41.31875117 50.65423148 45.0625 55.5625 C48.62883758 60.23682596 52.25606465 64.85333721 55.9375 69.4375 C59.83720261 74.29345153 63.71824557 79.16250182 67.5625 84.0625 C68.01375244 84.63750244 68.46500488 85.21250488 68.92993164 85.80493164 C71.18164366 88.6761367 73.42982535 91.55007211 75.67578125 94.42578125 C80.57538778 100.69073531 85.53142927 106.90247023 90.5625 113.0625 C94.4667889 117.84392621 98.31875117 122.65423148 102.0625 127.5625 C105.62883758 132.23682596 109.25606465 136.85333721 112.9375 141.4375 C116.83720261 146.29345153 120.71824557 151.16250182 124.5625 156.0625 C125.01375244 156.63750244 125.46500488 157.21250488 125.92993164 157.80493164 C128.18164366 160.6761367 130.42982535 163.55007211 132.67578125 166.42578125 C137.57538778 172.69073531 142.53142927 178.90247023 147.5625 185.0625 C151.4667889 189.84392621 155.31875117 194.65423148 159.0625 199.5625 C162.62883758 204.23682596 166.25606465 208.85333721 169.9375 213.4375 C173.83720261 218.29345153 177.71824557 223.16250182 181.5625 228.0625 C182.01375244 228.63750244 182.46500488 229.21250488 182.92993164 229.80493164 C185.18164366 232.6761367 187.42982535 235.55007211 189.67578125 238.42578125 C194.57538778 244.69073531 199.53142927 250.90247023 204.5625 257.0625 C208.4667889 261.84392621 212.31875117 266.65423148 216.0625 271.5625 C219.62883758 276.23682596 223.25606465 280.85333721 226.9375 285.4375 C230.83720261 290.29345153 234.71824557 295.16250182 238.5625 300.0625 C239.01375244 300.63750244 239.46500488 301.21250488 239.92993164 301.80493164 C242.18164366 304.6761367 244.42982535 307.55007211 246.67578125 310.42578125 C251.57538778 316.69073531 256.53142927 322.90247023 261.5625 329.0625 C265.4667889 333.84392621 269.31875117 338.65423148 273.0625 343.5625 C277.12404883 348.88588925 281.27719064 354.12672341 285.47119141 359.34619141 C288.82320627 363.5204188 292.14098432 367.71935197 295.4375 371.9375 C299.41920821 377.0291726 303.47370103 382.05651465 307.5625 387.0625 C311.67522507 392.10713354 315.75709704 397.17228683 319.75 402.3125 C320.54921875 403.33988281 321.3484375 404.36726563 322.171875 405.42578125 C324 408 324 408 325 411 C334.64428103 401.57723072 342.72435885 390.61714188 351 380 C356.78408388 372.58698058 362.61461908 365.22006975 368.5625 357.9375 C372.4667889 353.15607379 376.31875117 348.34576852 380.0625 343.4375 C384.12280668 338.11573881 388.27552771 332.87721646 392.46679688 327.65820312 C395.85565166 323.43623679 399.22082052 319.19690158 402.5625 314.9375 C403.01375244 314.36249756 403.46500488 313.78749512 403.92993164 313.19506836 C406.18164366 310.3238633 408.42982535 307.44992789 410.67578125 304.57421875 C415.57538778 298.30926469 420.53142927 292.09752977 425.5625 285.9375 C429.4667889 281.15607379 433.31875117 276.34576852 437.0625 271.4375 C441.12280668 266.11573881 445.27552771 260.87721646 449.46679688 255.65820312 C452.85565166 251.43623679 456.22082052 247.19690158 459.5625 242.9375 C460.01375244 242.36249756 460.46500488 241.78749512 460.92993164 241.19506836 C463.18164366 238.3238633 465.42982535 235.44992789 467.67578125 232.57421875 C472.57538778 226.30926469 477.53142927 220.09752977 482.5625 213.9375 C486.4667889 209.15607379 490.31875117 204.34576852 494.0625 199.4375 C498.12280668 194.11573881 502.27552771 188.87721646 506.46679688 183.65820312 C509.85565166 179.43623679 513.22082052 175.19690158 516.5625 170.9375 C517.01375244 170.36249756 517.46500488 169.78749512 517.92993164 169.19506836 C520.18164366 166.3238633 522.42982535 163.44992789 524.67578125 160.57421875 C529.57538778 154.30926469 534.53142927 148.09752977 539.5625 141.9375 C543.4667889 137.15607379 547.31875117 132.34576852 551.0625 127.4375 C555.12342779 122.11492474 559.27635829 116.87524599 563.46899414 111.65600586 C566.83942385 107.45792147 570.18093915 103.23879339 573.5 99 C577.30428539 94.1430426 581.13997867 89.31277608 585 84.5 C588.87763496 79.6640308 592.73557846 74.8137167 596.5625 69.9375 C597.01383301 69.36241699 597.46516602 68.78733398 597.93017578 68.19482422 C600.18176335 65.32366687 602.42989571 62.4498378 604.67578125 59.57421875 C609.57538778 53.30926469 614.53142927 47.09752977 619.5625 40.9375 C623.46679898 36.15606146 627.31844485 31.34554553 631.0625 26.4375 C634.7844622 21.56422707 638.55504053 16.73440146 642.375 11.9375 C642.87523682 11.30577881 643.37547363 10.67405762 643.89086914 10.02319336 C644.3677417 9.42643799 644.84461426 8.82968262 645.3359375 8.21484375 C645.75407715 7.69011475 646.1722168 7.16538574 646.60302734 6.62475586 C648.30432802 4.64604981 650.1484638 2.83775492 652 1 C652.22906819 39.25158414 652.40518727 77.50306466 652.51065329 115.75519634 C652.52315982 120.27486835 652.5361031 124.794539 652.54931641 129.31420898 C652.55193951 130.21396461 652.55456261 131.11372024 652.55726521 132.04074118 C652.60073604 146.59478686 652.67955786 161.14843609 652.77152796 175.70224687 C652.86516231 190.64443887 652.92061277 205.58642377 652.94088495 220.52889711 C652.954582 229.74372302 652.99778282 238.95742828 653.07916467 248.17190907 C653.13217235 254.49731588 653.14796822 260.82214644 653.13501377 267.14775904 C653.12863048 270.79359195 653.13815922 274.43747209 653.19205475 278.08295441 C653.54729941 303.34074157 653.54729941 303.34074157 647.14584351 311.05537415 C645.47847754 312.75203907 643.767921 314.40838557 642 316 C640.81787819 317.41630093 639.65499675 318.8494506 638.53125 320.3125 C637.52215346 321.54275067 636.51175366 322.77193361 635.5 324 C630.70914285 329.85643174 626.04186317 335.7881888 621.44921875 341.80078125 C614.3915815 351.03961182 607.1212591 360.10164114 599.76855469 369.10644531 C596.42660949 373.21090207 593.14742929 377.35409938 589.9375 381.5625 C585.87719332 386.88426119 581.72447229 392.12278354 577.53320312 397.34179688 C574.14434834 401.56376321 570.77917948 405.80309842 567.4375 410.0625 C566.76062134 410.92500366 566.76062134 410.92500366 566.07006836 411.80493164 C563.81835634 414.6761367 561.57017465 417.55007211 559.32421875 420.42578125 C554.42461222 426.69073531 549.46857073 432.90247023 544.4375 439.0625 C540.5332111 443.84392621 536.68124883 448.65423148 532.9375 453.5625 C528.87719332 458.88426119 524.72447229 464.12278354 520.53320312 469.34179688 C517.14434834 473.56376321 513.77917948 477.80309842 510.4375 482.0625 C509.98624756 482.63750244 509.53499512 483.21250488 509.07006836 483.80493164 C506.81835634 486.6761367 504.57017465 489.55007211 502.32421875 492.42578125 C497.42461222 498.69073531 492.46857073 504.90247023 487.4375 511.0625 C483.5332111 515.84392621 479.68124883 520.65423148 475.9375 525.5625 C471.87719332 530.88426119 467.72447229 536.12278354 463.53320312 541.34179688 C460.14434834 545.56376321 456.77917948 549.80309842 453.4375 554.0625 C452.98624756 554.63750244 452.53499512 555.21250488 452.07006836 555.80493164 C449.81835634 558.6761367 447.57017465 561.55007211 445.32421875 564.42578125 C439.88175961 571.3848618 434.35461077 578.26652826 428.76611328 585.10888672 C424.6059375 590.21741958 420.58813392 595.4168633 416.59375 600.65625 C413.63788799 604.49887061 410.56887436 608.24747212 407.5 612 C403.57387237 616.80176754 399.69817104 621.62990957 395.9375 626.5625 C391.87719332 631.88426119 387.72447229 637.12278354 383.53320312 642.34179688 C380.14434834 646.56376321 376.77917948 650.80309842 373.4375 655.0625 C372.98624756 655.63750244 372.53499512 656.21250488 372.07006836 656.80493164 C369.81835634 659.6761367 367.57017465 662.55007211 365.32421875 665.42578125 C360.42461135 671.69073643 355.46852731 677.90243367 350.4375 684.0625 C344.82088958 690.94185543 339.385491 697.93860445 334 705 C331.67302817 708.00497441 329.33817123 711.00373422 327 714 C323.09457907 711.11398348 320.32980751 708.07816747 317.4375 704.1875 C316.56129274 703.02238566 315.68362726 701.85836687 314.8046875 700.6953125 C314.34803711 700.08977539 313.89138672 699.48423828 313.42089844 698.86035156 C311.02124299 695.71853464 308.54140197 692.64191117 306.0625 689.5625 C302.16218007 684.70705057 298.28174829 679.83749035 294.4375 674.9375 C293.98624756 674.36249756 293.53499512 673.78749512 293.07006836 673.19506836 C290.81835634 670.3238633 288.57017465 667.44992789 286.32421875 664.57421875 C281.42461222 658.30926469 276.46857073 652.09752977 271.4375 645.9375 C267.5332111 641.15607379 263.68124883 636.34576852 259.9375 631.4375 C255.87657221 626.11492474 251.72364171 620.87524599 247.53100586 615.65600586 C244.16057615 611.45792147 240.81906085 607.23879339 237.5 603 C233.69571535 598.14304353 229.86009568 593.3127157 226 588.5 C221.68138025 583.11560263 217.40078874 577.70331243 213.14453125 572.26953125 C209.78947697 567.99159671 206.40149511 563.74107353 203 559.5 C196.37778123 551.24113955 189.84010502 542.91712242 183.32421875 534.57421875 C178.42461222 528.30926469 173.46857073 522.09752977 168.4375 515.9375 C164.5332111 511.15607379 160.68124883 506.34576852 156.9375 501.4375 C153.37116242 496.76317404 149.74393535 492.14666279 146.0625 487.5625 C142.16279739 482.70654847 138.28175443 477.83749818 134.4375 472.9375 C133.98624756 472.36249756 133.53499512 471.78749512 133.07006836 471.19506836 C130.81835634 468.3238633 128.57017465 465.44992789 126.32421875 462.57421875 C121.42461222 456.30926469 116.46857073 450.09752977 111.4375 443.9375 C107.5332111 439.15607379 103.68124883 434.34576852 99.9375 429.4375 C96.37116242 424.76317404 92.74393535 420.14666279 89.0625 415.5625 C85.16279739 410.70654847 81.28175443 405.83749818 77.4375 400.9375 C76.98624756 400.36249756 76.53499512 399.78749512 76.07006836 399.19506836 C73.81835634 396.3238633 71.57017465 393.44992789 69.32421875 390.57421875 C64.42461222 384.30926469 59.46857073 378.09752977 54.4375 371.9375 C50.5332111 367.15607379 46.68124883 362.34576852 42.9375 357.4375 C39.37116242 352.76317404 35.74393535 348.14666279 32.0625 343.5625 C26.79310251 337.00098972 21.57926359 330.39815923 16.38964844 323.7734375 C13.94965899 320.65957886 11.50605408 317.54856154 9.0625 314.4375 C8.61382568 313.86572021 8.16515137 313.29394043 7.70288086 312.70483398 C4.97585618 309.21851949 4.97585618 309.21851949 1.87942886 306.06535816 C-1.08435452 301.23141219 -0.53666653 296.45697079 -0.48101807 290.89567566 C-0.48443577 289.65408717 -0.48785347 288.41249868 -0.49137473 287.1332863 C-0.49682528 283.68956662 -0.48432194 280.24675579 -0.46426249 276.803146 C-0.4469915 273.08881632 -0.45283393 269.37451479 -0.45587158 265.66015625 C-0.45796917 259.22569819 -0.44541731 252.79140235 -0.42292023 246.35698509 C-0.39041448 237.05392158 -0.37999468 227.75093652 -0.37496826 218.44782237 C-0.36621337 203.35424922 -0.33959252 188.26076253 -0.30175781 173.16723633 C-0.26504275 158.50513135 -0.23672852 143.84304986 -0.21972656 129.1809082 C-0.21867567 128.27716216 -0.21762477 127.37341612 -0.21654204 126.44228383 C-0.21132189 121.90846356 -0.20626706 117.37464313 -0.20129442 112.84082258 C-0.15982634 75.227154 -0.08937262 37.61358373 0 0 Z " fill="#14C0C0" transform="translate(29,8)"/>
<path d="M0 0 C3.67460901 3.62062695 6.98043885 7.35405781 10.125 11.4375 C11.09891917 12.68883257 12.07287861 13.94013379 13.046875 15.19140625 C13.53865234 15.82578613 14.03042969 16.46016602 14.53710938 17.11376953 C16.80749577 20.04117362 19.08907162 22.95972188 21.375 25.875 C21.82238525 26.44589355 22.26977051 27.01678711 22.73071289 27.60498047 C26.2907583 32.13251836 29.91928627 36.60175868 33.5625 41.0625 C37.4667889 45.84392621 41.31875117 50.65423148 45.0625 55.5625 C48.62883758 60.23682596 52.25606465 64.85333721 55.9375 69.4375 C59.83720261 74.29345153 63.71824557 79.16250182 67.5625 84.0625 C68.01375244 84.63750244 68.46500488 85.21250488 68.92993164 85.80493164 C71.18164366 88.6761367 73.42982535 91.55007211 75.67578125 94.42578125 C80.57538778 100.69073531 85.53142927 106.90247023 90.5625 113.0625 C94.4667889 117.84392621 98.31875117 122.65423148 102.0625 127.5625 C105.62883758 132.23682596 109.25606465 136.85333721 112.9375 141.4375 C116.83720261 146.29345153 120.71824557 151.16250182 124.5625 156.0625 C125.01375244 156.63750244 125.46500488 157.21250488 125.92993164 157.80493164 C128.18164366 160.6761367 130.42982535 163.55007211 132.67578125 166.42578125 C137.57538778 172.69073531 142.53142927 178.90247023 147.5625 185.0625 C151.4667889 189.84392621 155.31875117 194.65423148 159.0625 199.5625 C162.62883758 204.23682596 166.25606465 208.85333721 169.9375 213.4375 C173.83720261 218.29345153 177.71824557 223.16250182 181.5625 228.0625 C182.01375244 228.63750244 182.46500488 229.21250488 182.92993164 229.80493164 C185.18164366 232.6761367 187.42982535 235.55007211 189.67578125 238.42578125 C194.57538778 244.69073531 199.53142927 250.90247023 204.5625 257.0625 C208.4667889 261.84392621 212.31875117 266.65423148 216.0625 271.5625 C219.62883758 276.23682596 223.25606465 280.85333721 226.9375 285.4375 C230.83720261 290.29345153 234.71824557 295.16250182 238.5625 300.0625 C239.01375244 300.63750244 239.46500488 301.21250488 239.92993164 301.80493164 C242.18164366 304.6761367 244.42982535 307.55007211 246.67578125 310.42578125 C251.57538778 316.69073531 256.53142927 322.90247023 261.5625 329.0625 C265.4667889 333.84392621 269.31875117 338.65423148 273.0625 343.5625 C277.12404883 348.88588925 281.27719064 354.12672341 285.47119141 359.34619141 C288.82320627 363.5204188 292.14098432 367.71935197 295.4375 371.9375 C299.41921227 377.0291778 303.47392602 382.05632671 307.5625 387.0625 C311.64396452 392.07299971 315.70872698 397.09487681 319.6875 402.1875 C320.86892578 403.69376953 320.86892578 403.69376953 322.07421875 405.23046875 C323.85188726 407.78699405 324.99707131 410.0662995 326 413 C325.40574219 413.70382812 324.81148438 414.40765625 324.19921875 415.1328125 C318.11242309 422.38395632 312.20761872 429.75649689 306.38671875 437.22216797 C304.11739869 440.13153217 301.84080273 443.03516709 299.5625 445.9375 C299.11140869 446.51226074 298.66031738 447.08702148 298.19555664 447.67919922 C294.32128143 452.607601 290.40441895 457.50124769 286.48291016 462.39208984 C283.11292851 466.59884676 279.7652785 470.82228526 276.4375 475.0625 C275.98616699 475.63758301 275.53483398 476.21266602 275.06982422 476.80517578 C272.81823665 479.67633313 270.57010429 482.5501622 268.32421875 485.42578125 C263.42461222 491.69073531 258.46857073 497.90247023 253.4375 504.0625 C249.5332111 508.84392621 245.68124883 513.65423148 241.9375 518.5625 C237.88003938 523.88053091 233.73038077 529.1155001 229.54199219 534.33081055 C221.93205824 543.81141797 214.44776276 553.39162347 207 563 C203.00507383 559.15194612 199.47727043 555.06780093 196 550.75 C195.15296509 549.70380493 195.15296509 549.70380493 194.28881836 548.63647461 C189.73635758 542.9835992 185.3342824 537.22399553 180.95385742 531.4375 C176.45964916 525.53071059 171.76779808 519.80563713 167.02416992 514.09838867 C162.71570093 508.90353724 158.57459036 503.60866785 154.48828125 498.23828125 C151.73586357 494.6345318 148.90225329 491.09759221 146.0625 487.5625 C142.16272324 482.70660878 138.28175369 477.83749724 134.4375 472.9375 C133.98624756 472.36249756 133.53499512 471.78749512 133.07006836 471.19506836 C130.81835634 468.3238633 128.57017465 465.44992789 126.32421875 462.57421875 C121.42461222 456.30926469 116.46857073 450.09752977 111.4375 443.9375 C107.5332111 439.15607379 103.68124883 434.34576852 99.9375 429.4375 C96.37116242 424.76317404 92.74393535 420.14666279 89.0625 415.5625 C85.16279739 410.70654847 81.28175443 405.83749818 77.4375 400.9375 C76.98624756 400.36249756 76.53499512 399.78749512 76.07006836 399.19506836 C73.81835634 396.3238633 71.57017465 393.44992789 69.32421875 390.57421875 C64.42461222 384.30926469 59.46857073 378.09752977 54.4375 371.9375 C50.5332111 367.15607379 46.68124883 362.34576852 42.9375 357.4375 C39.37116242 352.76317404 35.74393535 348.14666279 32.0625 343.5625 C26.79310251 337.00098972 21.57926359 330.39815923 16.38964844 323.7734375 C13.94965899 320.65957886 11.50605408 317.54856154 9.0625 314.4375 C8.61382568 313.86572021 8.16515137 313.29394043 7.70288086 312.70483398 C4.97585618 309.21851949 4.97585618 309.21851949 1.87942886 306.06535816 C-1.08435452 301.23141219 -0.53666653 296.45697079 -0.48101807 290.89567566 C-0.48443577 289.65408717 -0.48785347 288.41249868 -0.49137473 287.1332863 C-0.49682528 283.68956662 -0.48432194 280.24675579 -0.46426249 276.803146 C-0.4469915 273.08881632 -0.45283393 269.37451479 -0.45587158 265.66015625 C-0.45796917 259.22569819 -0.44541731 252.79140235 -0.42292023 246.35698509 C-0.39041448 237.05392158 -0.37999468 227.75093652 -0.37496826 218.44782237 C-0.36621337 203.35424922 -0.33959252 188.26076253 -0.30175781 173.16723633 C-0.26504275 158.50513135 -0.23672852 143.84304986 -0.21972656 129.1809082 C-0.21867567 128.27716216 -0.21762477 127.37341612 -0.21654204 126.44228383 C-0.21132189 121.90846356 -0.20626706 117.37464313 -0.20129442 112.84082258 C-0.15982634 75.227154 -0.08937262 37.61358373 0 0 Z " fill="#109A9A" transform="translate(29,8)"/>
<path d="M0 0 C3.2114118 1.37286017 4.9121083 2.80510414 6.98828125 5.59765625 C7.79616089 6.67092163 7.79616089 6.67092163 8.62036133 7.76586914 C9.17876709 8.52375732 9.73717285 9.28164551 10.3125 10.0625 C11.46851655 11.60434173 12.6247647 13.14600984 13.78125 14.6875 C14.61076172 15.80125 14.61076172 15.80125 15.45703125 16.9375 C17.37719319 19.50419748 19.33785709 22.03754677 21.3125 24.5625 C21.84488281 25.24441406 22.37726563 25.92632812 22.92578125 26.62890625 C23.28027344 27.08136719 23.63476562 27.53382813 24 28 C22.31483759 31.89102108 19.75433107 35.02950842 17.125 38.3125 C16.39796875 39.22902344 16.39796875 39.22902344 15.65625 40.1640625 C14.10838744 42.11278177 12.55500194 44.05697421 11 46 C10.50081055 46.62438965 10.00162109 47.2487793 9.48730469 47.89208984 C7.48789204 50.39233512 5.48755504 52.89183303 3.48510742 55.38964844 C0.11411382 59.5969967 -3.23404677 63.82142553 -6.5625 68.0625 C-7.01383301 68.63758301 -7.46516602 69.21266602 -7.93017578 69.80517578 C-10.18176335 72.67633313 -12.42989571 75.5501622 -14.67578125 78.42578125 C-19.57538778 84.69073531 -24.53142927 90.90247023 -29.5625 97.0625 C-33.4667889 101.84392621 -37.31875117 106.65423148 -41.0625 111.5625 C-45.12280668 116.88426119 -49.27552771 122.12278354 -53.46679688 127.34179688 C-56.85565166 131.56376321 -60.22082052 135.80309842 -63.5625 140.0625 C-64.01375244 140.63750244 -64.46500488 141.21250488 -64.92993164 141.80493164 C-67.18164366 144.6761367 -69.42982535 147.55007211 -71.67578125 150.42578125 C-76.73042496 156.88993695 -81.8353927 163.31074681 -87 169.6875 C-87.55220215 170.37118652 -88.1044043 171.05487305 -88.67333984 171.75927734 C-89.1936377 172.39945801 -89.71393555 173.03963867 -90.25 173.69921875 C-90.70890625 174.26471436 -91.1678125 174.83020996 -91.640625 175.4128418 C-93.02217316 177.02588859 -94.47915941 178.51857826 -96 180 C-99.78524162 175.38984483 -103.54930758 170.76383463 -107.2890625 166.11669922 C-108.36338072 164.78759833 -109.44329712 163.46298286 -110.53125 162.14501953 C-111.85031769 160.54702399 -113.14633126 158.93305651 -114.4375 157.3125 C-115.17871094 156.40113281 -115.91992188 155.48976563 -116.68359375 154.55078125 C-118 152 -118 152 -117.59375 149.6328125 C-115.39210818 145.99578655 -112.7945247 142.81281625 -110.0625 139.5625 C-108.87795934 138.12968855 -107.69438155 136.69608059 -106.51171875 135.26171875 C-105.9192334 134.5454834 -105.32674805 133.82924805 -104.71630859 133.09130859 C-102.22389266 130.05431928 -99.79372214 126.97080565 -97.375 123.875 C-96.92970947 123.30595947 -96.48441895 122.73691895 -96.02563477 122.15063477 C-95.13094049 121.00666598 -94.23665089 119.86238058 -93.34277344 118.71777344 C-91.06766082 115.80728392 -88.78336957 112.90401293 -86.5 110 C-83.75945374 106.51348899 -81.01990368 103.02621842 -78.28515625 99.53515625 C-73.05509493 92.86231939 -67.786497 86.22245764 -62.48291016 79.60791016 C-57.73497767 73.6810536 -53.04193285 67.71206408 -48.35888672 61.73388672 C-46.07546697 58.82033173 -43.78749197 55.91035807 -41.5 53 C-40.58331177 51.83335027 -39.6666451 50.66668361 -38.75 49.5 C-36.91666667 47.16666667 -35.08333333 44.83333333 -33.25 42.5 C-32.79633057 41.92258057 -32.34266113 41.34516113 -31.87524414 40.75024414 C-30.95784991 39.5826959 -30.04036933 38.41521551 -29.12280273 37.24780273 C-26.84155755 34.3451721 -24.56178786 31.44140726 -22.28515625 28.53515625 C-16.86169247 21.616034 -11.40196621 14.72838829 -5.88305664 7.88500977 C-3.8125229 5.3094848 -1.83440045 2.75160067 0 0 Z " fill="#0B6C6C" transform="translate(331,391)"/>
</svg>
