<?xml version="1.0" encoding="UTF-8"?>
<svg version="1.1" xmlns="http://www.w3.org/2000/svg" width="449" height="337">
<path d="M0 0 C3.48933577 1.64703136 5.75955899 3.51679784 8.49316406 6.26611328 C9.37377502 7.14687531 10.25438599 8.02763733 11.16168213 8.93508911 C12.11310431 9.89672351 13.06441603 10.8584672 14.015625 11.8203125 C14.99596129 12.80438107 15.97674168 13.78800742 16.95794678 14.77120972 C19.53354467 17.35442714 22.10307857 19.94359512 24.67138672 22.53405762 C27.29551067 25.1786762 29.92533771 27.8176101 32.5546875 30.45703125 C37.7087167 35.63248072 42.85635157 40.81423122 48 46 C40.94186237 61.14408019 33.51831144 76.09848239 26.03323245 91.03492904 C24.3712668 94.35248678 22.71166031 97.6712244 21.05177307 100.98982239 C17.9147371 107.26081283 14.77567048 113.53078437 11.63582522 119.80036861 C8.08786608 126.88510937 4.54217307 133.97098336 0.99668205 141.05695951 C-4.5457811 152.13398747 -10.08963779 163.21031666 -15.63500977 174.28588867 C-20.42644923 183.85570669 -25.21529716 193.42681223 -30 203 C-30.79228377 204.58465239 -31.58459566 206.16929071 -32.37695312 207.75390625 C-32.8565448 208.7130896 -32.8565448 208.7130896 -33.3458252 209.69165039 C-37.56388346 218.12776693 -41.78194173 226.56388346 -46 235 C-49 235 -49 235 -50.64671326 233.62657166 C-51.2433931 232.98401932 -51.84007294 232.34146698 -52.45483398 231.67944336 C-53.47751625 230.59348122 -53.47751625 230.59348122 -54.52085876 229.48558044 C-55.25518631 228.69498734 -55.98951385 227.90439423 -56.74609375 227.08984375 C-58.32070176 225.44316462 -59.89692661 223.79803032 -61.47460938 222.15429688 C-63.95913469 219.55254689 -66.43229376 216.94311341 -68.87866211 214.30541992 C-71.24215081 211.76569047 -73.6454997 209.26986922 -76.05859375 206.77734375 C-76.77470322 205.98472641 -77.49081268 205.19210907 -78.22862244 204.37547302 C-81.46696067 201.0885022 -83.46959988 199.10495217 -88.19290161 198.78103638 C-91.47276423 199.02989738 -91.47276423 199.02989738 -94.59169006 199.60548401 C-95.38643234 199.73567429 -96.18117462 199.86586456 -97 200 C-97.33 199.67 -97.66 199.34 -98 199 C-97.95748313 196.85289791 -97.90958409 194.70576223 -97.83398438 192.55957031 C-97.50278803 181.97284056 -98.85619137 173.7675489 -103 164 C-103.03758423 165.15616821 -103.03758423 165.15616821 -103.07592773 166.33569336 C-103.19285494 169.86975836 -103.31513823 173.40361916 -103.4375 176.9375 C-103.47681641 178.14986328 -103.51613281 179.36222656 -103.55664062 180.61132812 C-103.7861147 187.12486148 -104.17004815 193.53474481 -105 200 C-106.5811292 200.50692692 -108.16501383 201.00526443 -109.75 201.5 C-111.07257813 201.91765625 -111.07257813 201.91765625 -112.421875 202.34375 C-115 203 -115 203 -119 203 C-118.67 180.23 -118.34 157.46 -118 134 C-116.35 133.67 -114.7 133.34 -113 133 C-118.445 117.16 -118.445 117.16 -124 101 C-126.40919573 104.21226097 -128.07391732 106.92532844 -129.8203125 110.48046875 C-130.35188965 111.55441895 -130.8834668 112.62836914 -131.43115234 113.73486328 C-131.99012207 114.8742334 -132.5490918 116.01360352 -133.125 117.1875 C-139.72180959 130.59810729 -139.72180959 130.59810729 -142.890625 136.21484375 C-143.31456543 136.97192627 -143.73850586 137.72900879 -144.17529297 138.5090332 C-144.94864154 139.87301612 -145.73824918 141.22796943 -146.54736328 142.57104492 C-149.35687941 147.55671423 -149.10953753 150.59547848 -148 156 C-145.62010711 153.85600877 -144.42210231 152.03284311 -143.265625 149.05859375 C-138.17258552 137.13890523 -138.17258552 137.13890523 -134.11474609 135.01171875 C-129.77901289 133.79161292 -125.48946661 133.75748599 -121 134 C-122.1429633 136.31395567 -123.28898446 138.62629963 -124.4375 140.9375 C-124.79005859 141.6488208 -125.14261719 142.3601416 -125.50585938 143.09301758 C-127.45056654 146.99052067 -129.44408713 150.8506808 -131.53515625 154.671875 C-132.15209351 155.80508179 -132.15209351 155.80508179 -132.78149414 156.96118164 C-133.58045691 158.42095753 -134.38796808 159.87609421 -135.20483398 161.32592773 C-135.57036377 161.99567627 -135.93589355 162.6654248 -136.3125 163.35546875 C-136.63863281 163.93965576 -136.96476563 164.52384277 -137.30078125 165.12573242 C-138.23653542 167.63403715 -138.31029295 169.33083731 -138 172 C-136.67088962 174.87566175 -136.67088962 174.87566175 -134.7890625 177.78125 C-134.12132812 178.87050781 -133.45359375 179.95976562 -132.765625 181.08203125 C-132.05269551 182.22173734 -131.33914801 183.36105705 -130.625 184.5 C-129.23676918 186.73631134 -127.85608295 188.97702927 -126.4765625 191.21875 C-125.549646 192.7027832 -125.549646 192.7027832 -124.60400391 194.21679688 C-123.13508965 196.76559787 -122.00934897 199.2420783 -121 202 C-130.58520179 206.03587444 -130.58520179 206.03587444 -136 205 C-138.54498412 202.14230959 -140.19474684 198.88908843 -141.9375 195.5 C-142.67709961 194.14068359 -142.67709961 194.14068359 -143.43164062 192.75390625 C-144.64570506 190.51436992 -145.83323274 188.26443502 -147 186 C-149.01767489 188.56941647 -150.62396303 191.05104871 -152.015625 194.00390625 C-152.38042969 194.74447266 -152.74523437 195.48503906 -153.12109375 196.24804688 C-153.87226586 197.78807967 -154.6093607 199.33506065 -155.33203125 200.88867188 C-157.19729413 204.61594804 -158.5943578 207.22839518 -162.48828125 208.984375 C-165.37896185 209.82038941 -167.94940168 210.45764628 -170.9375 210.6875 C-171.70964844 210.75324219 -172.48179687 210.81898438 -173.27734375 210.88671875 C-174.13005859 210.94279297 -174.13005859 210.94279297 -175 211 C-173.52282343 207.11595531 -171.76138174 203.46862502 -169.84765625 199.78125 C-169.54685654 199.20088989 -169.24605682 198.62052979 -168.93614197 198.02258301 C-168.30270811 196.80174403 -167.66813139 195.58149741 -167.0324707 194.36181641 C-166.06618334 192.50707001 -165.10411269 190.65018272 -164.14257812 188.79296875 C-159.31339402 179.4954551 -159.31339402 179.4954551 -157.27905273 176.27929688 C-155.73950735 174.04143296 -155.73950735 174.04143296 -156.25 171.3125 C-156.93377081 169.00790439 -156.93377081 169.00790439 -158 167 C-162.72942123 174.97924699 -167.21725049 183.08507235 -171.5 191.3125 C-171.94520996 192.13524414 -172.39041992 192.95798828 -172.84912109 193.80566406 C-175.76982433 199.51415505 -176.46257758 203.59458552 -176 210 C-176.94875 210.061875 -177.8975 210.12375 -178.875 210.1875 C-180.421875 210.5896875 -180.421875 210.5896875 -182 211 C-183.06633281 213.18949757 -183.06633281 213.18949757 -184 216 C-186.1752658 220.69549899 -188.43342471 225.34810996 -190.7121582 229.99414062 C-191.4475172 231.50173261 -192.17568848 233.01285119 -192.89672852 234.52734375 C-193.94138812 236.7197278 -195.00893694 238.89954572 -196.08203125 241.078125 C-196.39993118 241.75723938 -196.71783112 242.43635376 -197.04536438 243.13604736 C-199.38483202 247.79596901 -199.38483202 247.79596901 -202.21313477 248.73402405 C-205.50120745 249.0478348 -208.32631217 248.71903386 -211.59448242 248.22729492 C-212.55636223 248.08602928 -212.55636223 248.08602928 -213.53767395 247.94190979 C-215.64499131 247.63001232 -217.75016766 247.30567681 -219.85546875 246.98046875 C-221.32319062 246.75911711 -222.79099081 246.53828425 -224.25886536 246.31794739 C-227.32864509 245.85514295 -230.39740474 245.38618768 -233.46557617 244.9128418 C-237.40161899 244.30609679 -241.33977274 243.71458105 -245.27880383 243.12758923 C-248.30711436 242.67464359 -251.33418064 242.21379408 -254.36092567 241.75051308 C-255.81305574 241.52920781 -257.26556182 241.31035565 -258.71843529 241.0939846 C-260.74485178 240.79096658 -262.76935195 240.47738306 -264.79370117 240.16088867 C-265.94666183 239.98466476 -267.0996225 239.80844086 -268.28752136 239.62687683 C-271 239 -271 239 -273 237 C-271.24284197 233.4606532 -269.48286771 229.92272161 -267.72045898 226.38598633 C-266.83238664 224.60243905 -265.94644216 222.81783276 -265.06054688 221.03320312 C-264.49013672 219.88916016 -263.91972656 218.74511719 -263.33203125 217.56640625 C-262.49406006 215.88248779 -262.49406006 215.88248779 -261.63916016 214.16455078 C-259.80819951 210.62971136 -257.80161398 207.23666083 -255.65893555 203.88256836 C-254.77012002 201.96734507 -254.77012002 201.96734507 -255.71948242 199.91552734 C-257.61617423 197.07826444 -260.08688199 194.93275824 -262.625 192.6875 C-263.12128906 192.23955078 -263.61757813 191.79160156 -264.12890625 191.33007812 C-268.37854905 187.50756227 -272.69309488 183.75768858 -277 180 C-276.99476318 180.54599854 -276.98952637 181.09199707 -276.98413086 181.65454102 C-276.86526592 196.13349452 -277.24679321 210.54083349 -278 225 C-282.873261 226.5912689 -286.80790596 227.21192221 -292 227 C-292.22115181 202.9927421 -291.56232199 178.99888538 -291 155 C-288.36 156.98 -285.72 158.96 -283 161 C-283 159.35 -283 157.7 -283 156 C-276.67405337 160.30164371 -271.49753844 165.38492228 -266.15380859 170.81274414 C-261.93604629 175.09024006 -257.6279117 179.16483243 -253 183 C-252.401875 183.50273437 -251.80375 184.00546875 -251.1875 184.5234375 C-249.79697011 185.68865005 -248.39941946 186.84547895 -247 188 C-246.73316406 187.11570312 -246.46632812 186.23140625 -246.19140625 185.3203125 C-245.06019121 182.167746 -243.6687057 179.72489636 -241.9375 176.875 C-237.54867587 168.43906067 -238.01842157 159.3213129 -238 150 C-234.37 149.67 -230.74 149.34 -227 149 C-226.74903564 148.16831299 -226.49807129 147.33662598 -226.23950195 146.47973633 C-224.84420942 142.56263873 -223.0857242 139.00533511 -221.16796875 135.32421875 C-220.59218834 134.2060955 -220.59218834 134.2060955 -220.004776 133.06538391 C-218.7362589 130.60405069 -217.46183986 128.14582282 -216.1875 125.6875 C-215.29022448 123.94880792 -214.39342312 122.20987107 -213.49707031 120.47070312 C-211.61793002 116.82520335 -209.73695554 113.18065814 -207.85498047 109.53662109 C-203.73925046 101.56163922 -199.65598726 93.57007036 -195.57015991 85.57974243 C-194.25457023 83.00893075 -192.93689702 80.43919893 -191.6184082 77.86987305 C-187.85775782 70.54094856 -184.10042335 63.21082653 -180.38684082 55.85791016 C-178.90238521 52.92117125 -177.41073263 49.98812467 -175.91784668 47.05566406 C-175.22881482 45.69744137 -174.54327975 44.33743844 -173.8614502 42.97558594 C-172.93462998 41.12495429 -171.99617098 39.28070373 -171.0546875 37.4375 C-170.53374512 36.40496094 -170.01280273 35.37242188 -169.47607422 34.30859375 C-168 32 -168 32 -165 31 C-162.88018192 31.18862117 -160.76792979 31.4661207 -158.66430664 31.78857422 C-158.02655807 31.8843576 -157.38880951 31.98014099 -156.73173523 32.0788269 C-154.62343755 32.39727083 -152.51685638 32.72585399 -150.41015625 33.0546875 C-148.94437638 33.27848901 -147.47850886 33.50171714 -146.01255798 33.72439575 C-142.93941699 34.1926657 -139.86703327 34.66553663 -136.79516602 35.14208984 C-132.86073526 35.75242099 -128.92516748 36.35497614 -124.98908329 36.95454216 C-121.23320416 37.52696413 -117.47790298 38.10313381 -113.72265625 38.6796875 C-112.6492483 38.84405619 -112.6492483 38.84405619 -111.55415535 39.01174545 C-109.52414275 39.32332399 -107.49455764 39.63754405 -105.46508789 39.95263672 C-104.31053604 40.13108124 -103.15598419 40.30952576 -101.96644592 40.49337769 C-100.98751877 40.66056305 -100.00859161 40.82774841 -99 41 C-98.23794754 41.12038132 -97.47589508 41.24076263 -96.69075012 41.36479187 C-95 42 -95 42 -93.48291016 45.21069336 C-92.98469454 46.66471785 -92.50484371 48.12510695 -92.0390625 49.58984375 C-91.77162231 50.38548737 -91.50418213 51.18113098 -91.2286377 52.00088501 C-90.34519638 54.64152628 -89.48520228 57.28920657 -88.625 59.9375 C-88.01697382 61.76930126 -87.40741519 63.6005945 -86.79638672 65.43139648 C-85.5129325 69.28570304 -84.2391168 73.14300653 -82.97265625 77.00292969 C-80.99289107 83.03264009 -78.98391507 89.05235457 -76.96875 95.0703125 C-73.6314054 105.04210676 -70.31044446 115.01924566 -67 125 C-64.59052093 124.87271729 -64.59052093 124.87271729 -62 124 C-60.29488276 121.92019777 -60.29488276 121.92019777 -59.04496765 119.17222595 C-58.51641678 118.12749619 -57.98786591 117.08276642 -57.44329834 116.00637817 C-56.88152893 114.85048187 -56.31975952 113.69458557 -55.7409668 112.50366211 C-55.13094619 111.28108236 -54.51933923 110.05929305 -53.90626526 108.83824158 C-52.24576686 105.51983009 -50.60772134 102.19077605 -48.97342658 98.8593986 C-47.26198071 95.38029595 -45.53017877 91.91135837 -43.80049133 88.44129944 C-40.52791291 81.8681547 -37.27379765 75.28604762 -34.0261839 68.70053917 C-30.32812647 61.20387428 -26.60965163 53.71740533 -22.88940942 46.2317313 C-15.23679844 30.8324023 -7.60998247 15.42043798 0 0 Z " fill="#A8A7A3" transform="translate(365,83)"/>
<path d="M0 0 C3.48933577 1.64703136 5.75955899 3.51679784 8.49316406 6.26611328 C9.37377502 7.14687531 10.25438599 8.02763733 11.16168213 8.93508911 C12.11310431 9.89672351 13.06441603 10.8584672 14.015625 11.8203125 C14.99596129 12.80438107 15.97674168 13.78800742 16.95794678 14.77120972 C19.53354467 17.35442714 22.10307857 19.94359512 24.67138672 22.53405762 C27.29551067 25.1786762 29.92533771 27.8176101 32.5546875 30.45703125 C37.7087167 35.63248072 42.85635157 40.81423122 48 46 C40.87802255 61.29314839 33.36733205 76.38556958 25.80271149 91.4630394 C24.11853373 94.82125395 22.43705992 98.18082178 20.75537109 101.5402832 C16.50599139 110.02806389 12.25315858 118.51411242 8 127 C3.37797256 136.22195805 -1.2434105 145.44423624 -5.86093426 154.66845036 C-7.85675633 158.65512127 -9.85452165 162.64081036 -11.85379887 166.62574959 C-12.79331706 168.49913101 -13.73192467 170.37296518 -14.67012024 172.24700928 C-15.81335872 174.53061116 -16.95804275 176.81349013 -18.10441589 179.09552002 C-18.60604752 180.09871277 -19.10767914 181.10190552 -19.62451172 182.13549805 C-20.28034744 183.44383858 -20.28034744 183.44383858 -20.94943237 184.77861023 C-22.09581834 187.08791875 -22.09581834 187.08791875 -23 190 C-24.32 189.67 -25.64 189.34 -27 189 C-26.01 189 -25.02 189 -24 189 C-24.05236816 188.18547363 -24.10473633 187.37094727 -24.15869141 186.53173828 C-25.07553167 170.07735701 -25.37030878 157.34592821 -15.59716797 143.41992188 C-12.32112749 138.45628488 -9.65930754 133.12448794 -6.875 127.875 C-5.74904941 125.78816946 -4.62158663 123.70215369 -3.4921875 121.6171875 C-2.66131828 120.0782006 -1.83053195 118.53916893 -1 117 C-1.66386719 117.13277344 -2.32773437 117.26554687 -3.01171875 117.40234375 C-11 119 -11 119 -13.5690918 119.12280273 C-17.38213995 120.4987475 -18.49342739 123.65705847 -20.20703125 127.09765625 C-20.57728928 127.80651474 -20.9475473 128.51537323 -21.32902527 129.24571228 C-22.50682784 131.5098063 -23.65974708 133.78556688 -24.8125 136.0625 C-25.60711636 137.60044105 -26.40332207 139.13756203 -27.20117188 140.67382812 C-29.15267853 144.43995411 -31.08196479 148.21672533 -33 152 C-33.66 152 -34.32 152 -35 152 C-35.61089478 150.82642944 -35.61089478 150.82642944 -36.23413086 149.62915039 C-37.7685884 146.71976347 -39.33083123 143.8293287 -40.91430664 140.9465332 C-41.59204439 139.69859663 -42.25827145 138.44433414 -42.91235352 137.18383789 C-46.39422313 129.79195204 -46.39422313 129.79195204 -52.51220703 124.96044922 C-54.78008467 124.70846281 -56.74569757 124.67833002 -59 125 C-58.67 125.99 -58.34 126.98 -58 128 C-58.4375 130.1875 -58.4375 130.1875 -59 132 C-61.31 132.33 -63.62 132.66 -66 133 C-66 131.02 -66 129.04 -66 127 C-67.32 126.67 -68.64 126.34 -70 126 C-68.41141678 125.99991692 -68.41141678 125.99991692 -66.79074097 125.99983215 C-62.63748855 124.92985157 -62.63748855 124.92985157 -60.5708313 121.62651062 C-59.80368428 120.09813226 -59.06476607 118.55539561 -58.34814453 117.00268555 C-57.72374576 115.73594891 -57.72374576 115.73594891 -57.08673286 114.44362164 C-56.18088149 112.60300301 -55.28574953 110.75707939 -54.40006256 108.90667343 C-52.50564716 104.97367282 -50.52880188 101.08433082 -48.55589104 97.19027424 C-45.82512921 91.79021851 -43.13074293 86.37198815 -40.4296875 80.95703125 C-39.25588324 78.60755242 -38.08189922 76.25816339 -36.90774536 73.90885925 C-34.16172237 68.4137412 -31.41773458 62.91760965 -28.67453206 57.42108315 C-25.54418216 51.14909182 -22.41148054 44.87827613 -19.27860999 38.60754359 C-12.84984427 25.73964149 -6.42393833 12.8703127 0 0 Z " fill="#A8A7A3" transform="translate(365,83)"/>
<path d="M0 0 C-2.16579819 5.67770919 -5.00312731 10.97804937 -7.80273438 16.36352539 C-8.73716783 18.16279147 -9.66568965 19.96501835 -10.59375 21.76757812 C-11.19703125 22.93095703 -11.8003125 24.09433594 -12.421875 25.29296875 C-13.01613281 26.44313477 -13.61039062 27.59330078 -14.22265625 28.77832031 C-15.82204225 31.67742713 -17.58765651 34.28918024 -19.484375 36.99609375 C-22.59847718 42.09391409 -22.19544691 46.20373936 -21.76586914 52.02734375 C-20.04768735 76.89285794 -33.05729243 97.02465063 -45 118 C-48 118 -48 118 -49.64671326 116.62657166 C-50.2433931 115.98401932 -50.84007294 115.34146698 -51.45483398 114.67944336 C-52.47751625 113.59348122 -52.47751625 113.59348122 -53.52085876 112.48558044 C-54.25518631 111.69498734 -54.98951385 110.90439423 -55.74609375 110.08984375 C-57.32070176 108.44316462 -58.89692661 106.79803032 -60.47460938 105.15429688 C-62.95913469 102.55254689 -65.43229376 99.94311341 -67.87866211 97.30541992 C-70.24215081 94.76569047 -72.6454997 92.26986922 -75.05859375 89.77734375 C-75.77470322 88.98472641 -76.49081268 88.19210907 -77.22862244 87.37547302 C-80.46696067 84.0885022 -82.46959988 82.10495217 -87.19290161 81.78103638 C-90.47276423 82.02989738 -90.47276423 82.02989738 -93.59169006 82.60548401 C-94.38643234 82.73567429 -95.18117462 82.86586456 -96 83 C-97 82 -97 82 -97.03759766 78.13647461 C-97.0018094 76.39164544 -96.96015853 74.64693104 -96.9140625 72.90234375 C-96.89314041 71.96851868 -96.87221832 71.0346936 -96.85066223 70.0725708 C-96.78074605 67.0273958 -96.70312973 63.98247448 -96.625 60.9375 C-96.57540927 58.86955214 -96.52601124 56.80159966 -96.47680664 54.73364258 C-96.13698191 40.81527167 -95.69602229 26.90563685 -95 13 C-85.03312011 10.98708112 -75.13024955 10.42772165 -65 10 C-65 11.98 -65 13.96 -65 16 C-61.535 15.505 -61.535 15.505 -58 15 C-58 12.69 -58 10.38 -58 8 C-54.66965289 6.93712326 -52.30346201 6.77371486 -49 8 C-45.75027868 12.06215165 -43.40369805 16.45248465 -41.02246094 21.06298828 C-39.61760216 23.72443755 -38.03300158 26.26194466 -36.4375 28.8125 C-34 32.75609756 -34 32.75609756 -34 35 C-33.34 35 -32.68 35 -32 35 C-31.7328418 34.13793945 -31.46568359 33.27587891 -31.19042969 32.38769531 C-29.36135148 27.18254987 -26.77779096 22.41603016 -24.19726562 17.54882812 C-23.56434146 16.34692471 -22.9399997 15.14046355 -22.32421875 13.9296875 C-21.42778035 12.16732775 -20.50325554 10.41934379 -19.578125 8.671875 C-18.76456543 7.11098145 -18.76456543 7.11098145 -17.93457031 5.51855469 C-15.13183087 1.86975861 -12.10287156 1.38431791 -7.734375 0.5859375 C-2.22222222 0 -2.22222222 0 0 0 Z " fill="#A8A7A3" transform="translate(364,200)"/>
<path d="M0 0 C-1.93678818 3.75474796 -3.87574032 7.50836807 -5.81665039 11.26098633 C-6.47576602 12.5360737 -7.13430339 13.81146017 -7.79223633 15.0871582 C-8.74145768 16.92739733 -9.69279665 18.76652843 -10.64453125 20.60546875 C-11.21534424 21.71043701 -11.78615723 22.81540527 -12.37426758 23.95385742 C-14 27 -14 27 -15.7097168 29.5871582 C-17.23040074 32.43085157 -17.48436801 33.81962136 -17 37 C-15.67088962 39.87566175 -15.67088962 39.87566175 -13.7890625 42.78125 C-13.12132812 43.87050781 -12.45359375 44.95976562 -11.765625 46.08203125 C-11.05269551 47.22173734 -10.33914801 48.36105705 -9.625 49.5 C-8.23676918 51.73631134 -6.85608295 53.97702927 -5.4765625 56.21875 C-4.85861816 57.20810547 -4.24067383 58.19746094 -3.60400391 59.21679688 C-2.13508965 61.76559787 -1.00934897 64.2420783 0 67 C-9.58520179 71.03587444 -9.58520179 71.03587444 -15 70 C-17.54498412 67.14230959 -19.19474684 63.88908843 -20.9375 60.5 C-21.43056641 59.59378906 -21.92363281 58.68757813 -22.43164062 57.75390625 C-23.64570506 55.51436992 -24.83323274 53.26443502 -26 51 C-28.01767489 53.56941647 -29.62396303 56.05104871 -31.015625 59.00390625 C-31.56283203 60.11475586 -31.56283203 60.11475586 -32.12109375 61.24804688 C-32.87226586 62.78807967 -33.6093607 64.33506065 -34.33203125 65.88867188 C-36.19729413 69.61594804 -37.5943578 72.22839518 -41.48828125 73.984375 C-44.37896185 74.82038941 -46.94940168 75.45764628 -49.9375 75.6875 C-50.70964844 75.75324219 -51.48179687 75.81898438 -52.27734375 75.88671875 C-53.13005859 75.94279297 -53.13005859 75.94279297 -54 76 C-52.52282343 72.11595531 -50.76138174 68.46862502 -48.84765625 64.78125 C-48.54685654 64.20088989 -48.24605682 63.62052979 -47.93614197 63.02258301 C-47.30270811 61.80174403 -46.66813139 60.58149741 -46.0324707 59.36181641 C-45.06618334 57.50707001 -44.10411269 55.65018272 -43.14257812 53.79296875 C-38.31339402 44.4954551 -38.31339402 44.4954551 -36.27905273 41.27929688 C-34.73950735 39.04143296 -34.73950735 39.04143296 -35.25 36.3125 C-35.93377081 34.00790439 -35.93377081 34.00790439 -37 32 C-41.72942123 39.97924699 -46.21725049 48.08507235 -50.5 56.3125 C-50.94520996 57.13524414 -51.39041992 57.95798828 -51.84912109 58.80566406 C-54.76982433 64.51415505 -55.46257758 68.59458552 -55 75 C-62.5062693 77.19127116 -70.02113902 78.56789548 -77.75 79.6875 C-78.63647217 79.81874268 -79.52294434 79.94998535 -80.4362793 80.08520508 C-81.29777588 80.20532959 -82.15927246 80.3254541 -83.046875 80.44921875 C-83.80838867 80.55580811 -84.56990234 80.66239746 -85.35449219 80.7722168 C-88.91423287 81.07871717 -92.42722839 81.03332633 -96 81 C-96.20108049 33.48313379 -96.20108049 33.48313379 -95 12 C-89.70433733 11.13137887 -84.40655287 10.27759844 -79.10644531 9.43652344 C-77.3099184 9.14941313 -75.51399378 8.85850376 -73.71875 8.56347656 C-63.04196222 6.81181607 -52.85043885 5.51223834 -42 6 C-41.39671875 7.08539063 -40.7934375 8.17078125 -40.171875 9.2890625 C-39.36471223 10.73444699 -38.55741332 12.17975546 -37.75 13.625 C-37.35425781 14.33785156 -36.95851562 15.05070312 -36.55078125 15.78515625 C-34.19854791 19.9883273 -31.72947722 24.03098955 -29 28 C-28.63237549 27.22285645 -28.26475098 26.44571289 -27.88598633 25.64501953 C-26.51045719 22.75738082 -25.12050118 19.87728861 -23.72045898 17.00146484 C-23.1182485 15.75688572 -22.52182057 14.50949095 -21.93139648 13.25927734 C-21.08031678 11.45976988 -20.20641986 9.6711101 -19.33203125 7.8828125 C-18.81358643 6.80402832 -18.2951416 5.72524414 -17.76098633 4.61376953 C-15.33943062 1.01954031 -12.9604471 0.41291468 -8.8671875 -0.44921875 C-5.52323665 -0.8491815 -3.23150339 -1.0771678 0 0 Z " fill="#A7A6A2" transform="translate(244,218)"/>
<path d="M0 0 C2.31 0 4.62 0 7 0 C7 23.43 7 46.86 7 71 C3.27702139 69.1385107 1.55548726 67.74413327 -1.25 64.8125 C-4.73304157 61.24380987 -8.31881213 57.9241809 -12.1015625 54.6796875 C-14.59096719 52.4771278 -16.8945103 50.11647364 -19.22265625 47.74609375 C-21.06593574 45.93522357 -22.97822799 44.24678646 -24.9375 42.5625 C-28.59547454 39.4179254 -31.9799188 36.06454594 -35.3359375 32.6015625 C-36.92422733 30.91371276 -36.92422733 30.91371276 -39 30 C-38.99476318 30.54599854 -38.98952637 31.09199707 -38.98413086 31.65454102 C-38.86526592 46.13349452 -39.24679321 60.54083349 -40 75 C-44.873261 76.5912689 -48.80790596 77.21192221 -54 77 C-54.22115181 52.9927421 -53.56232199 28.99888538 -53 5 C-50.36 6.98 -47.72 8.96 -45 11 C-45 9.35 -45 7.7 -45 6 C-38.67405337 10.30164371 -33.49753844 15.38492228 -28.15380859 20.81274414 C-23.93604629 25.09024006 -19.6279117 29.16483243 -15 33 C-14.401875 33.50273437 -13.80375 34.00546875 -13.1875 34.5234375 C-11.79697011 35.68865005 -10.39941946 36.84547895 -9 38 C-8.73316406 37.11570312 -8.46632812 36.23140625 -8.19140625 35.3203125 C-7.06019121 32.167746 -5.6687057 29.72489636 -3.9375 26.875 C0.45132413 18.43906067 -0.01842157 9.3213129 0 0 Z " fill="#070706" transform="translate(127,233)"/>
<path d="M0 0 C-1.93678818 3.75474796 -3.87574032 7.50836807 -5.81665039 11.26098633 C-6.47576602 12.5360737 -7.13430339 13.81146017 -7.79223633 15.0871582 C-8.74145768 16.92739733 -9.69279665 18.76652843 -10.64453125 20.60546875 C-11.21534424 21.71043701 -11.78615723 22.81540527 -12.37426758 23.95385742 C-14 27 -14 27 -15.7097168 29.5871582 C-17.23040074 32.43085157 -17.48436801 33.81962136 -17 37 C-15.67088962 39.87566175 -15.67088962 39.87566175 -13.7890625 42.78125 C-13.12132812 43.87050781 -12.45359375 44.95976562 -11.765625 46.08203125 C-11.05269551 47.22173734 -10.33914801 48.36105705 -9.625 49.5 C-8.23676918 51.73631134 -6.85608295 53.97702927 -5.4765625 56.21875 C-4.85861816 57.20810547 -4.24067383 58.19746094 -3.60400391 59.21679688 C-2.13508965 61.76559787 -1.00934897 64.2420783 0 67 C-9.58520179 71.03587444 -9.58520179 71.03587444 -15 70 C-17.54498412 67.14230959 -19.19474684 63.88908843 -20.9375 60.5 C-21.43056641 59.59378906 -21.92363281 58.68757813 -22.43164062 57.75390625 C-23.64570506 55.51436992 -24.83323274 53.26443502 -26 51 C-28.01767489 53.56941647 -29.62396303 56.05104871 -31.015625 59.00390625 C-31.38042969 59.74447266 -31.74523437 60.48503906 -32.12109375 61.24804688 C-32.87226586 62.78807967 -33.6093607 64.33506065 -34.33203125 65.88867188 C-36.19729413 69.61594804 -37.5943578 72.22839518 -41.48828125 73.984375 C-44.37896185 74.82038941 -46.94940168 75.45764628 -49.9375 75.6875 C-50.70964844 75.75324219 -51.48179687 75.81898438 -52.27734375 75.88671875 C-53.13005859 75.94279297 -53.13005859 75.94279297 -54 76 C-52.52282343 72.11595531 -50.76138174 68.46862502 -48.84765625 64.78125 C-48.54685654 64.20088989 -48.24605682 63.62052979 -47.93614197 63.02258301 C-47.30270811 61.80174403 -46.66813139 60.58149741 -46.0324707 59.36181641 C-45.06618334 57.50707001 -44.10411269 55.65018272 -43.14257812 53.79296875 C-38.34239735 44.55129452 -38.34239735 44.55129452 -36.29370117 41.25268555 C-34.80927803 39.10605571 -34.80927803 39.10605571 -35.015625 36.73828125 C-36.48986568 32.6373181 -38.59179039 28.96436682 -40.75 25.1875 C-41.18054688 24.41857422 -41.61109375 23.64964844 -42.0546875 22.85742188 C-44.59576388 18.3496741 -47.25605066 13.95175094 -50.09082031 9.62231445 C-51 8 -51 8 -51 6 C-48.03 6 -45.06 6 -42 6 C-41.39671875 7.08539063 -40.7934375 8.17078125 -40.171875 9.2890625 C-39.36471223 10.73444699 -38.55741332 12.17975546 -37.75 13.625 C-37.35425781 14.33785156 -36.95851562 15.05070312 -36.55078125 15.78515625 C-34.19854791 19.9883273 -31.72947722 24.03098955 -29 28 C-28.63237549 27.22285645 -28.26475098 26.44571289 -27.88598633 25.64501953 C-26.51045719 22.75738082 -25.12050118 19.87728861 -23.72045898 17.00146484 C-23.1182485 15.75688572 -22.52182057 14.50949095 -21.93139648 13.25927734 C-21.08031678 11.45976988 -20.20641986 9.6711101 -19.33203125 7.8828125 C-18.81358643 6.80402832 -18.2951416 5.72524414 -17.76098633 4.61376953 C-15.33943062 1.01954031 -12.9604471 0.41291468 -8.8671875 -0.44921875 C-5.52323665 -0.8491815 -3.23150339 -1.0771678 0 0 Z " fill="#080808" transform="translate(244,218)"/>
<path d="M0 0 C0 2.31 0 4.62 0 7 C-3.16513278 7.51003854 -6.33230284 8.00615957 -9.5 8.5 C-10.8303125 8.71462891 -10.8303125 8.71462891 -12.1875 8.93359375 C-13.0640625 9.06894531 -13.940625 9.20429688 -14.84375 9.34375 C-15.63974609 9.46943359 -16.43574219 9.59511719 -17.25585938 9.72460938 C-20.82051048 10.08234304 -24.41744353 10 -28 10 C-28 16.93 -28 23.86 -28 31 C-22.43517629 30.02023944 -22.43517629 30.02023944 -16.87304688 29.02539062 C-11.83935224 28.16286271 -7.10633099 27.85945878 -2 28 C-2 30.31 -2 32.62 -2 35 C-5.37398089 35.50704109 -8.74932621 36.00436536 -12.125 36.5 C-13.07632813 36.64308594 -14.02765625 36.78617187 -15.0078125 36.93359375 C-15.9359375 37.06894531 -16.8640625 37.20429688 -17.8203125 37.34375 C-18.66867676 37.46943359 -19.51704102 37.59511719 -20.39111328 37.72460938 C-23.24634672 38.02600403 -26.12890322 38 -29 38 C-29 46.91 -29 55.82 -29 65 C-23.15108811 64.02080086 -23.15108811 64.02080086 -17.30493164 63.02539062 C-11.79824698 62.12982139 -6.57845847 61.86490111 -1 62 C-1 64.31 -1 66.62 -1 69 C-5.33187088 69.67640509 -9.66569839 70.33936494 -14 71 C-15.22074219 71.19078125 -16.44148438 71.3815625 -17.69921875 71.578125 C-18.89160156 71.75859375 -20.08398438 71.9390625 -21.3125 72.125 C-22.40175781 72.29257812 -23.49101562 72.46015625 -24.61328125 72.6328125 C-28.45243324 73.04905274 -32.14043046 73.05892473 -36 73 C-36.20638953 24.22856724 -36.20638953 24.22856724 -35 4 C-30.85595766 3.32187578 -26.7095274 2.65960242 -22.5625 2 C-21.39783203 1.80921875 -20.23316406 1.6184375 -19.03320312 1.421875 C-12.59939149 0.40696387 -6.51265558 -0.22289303 0 0 Z " fill="#050505" transform="translate(184,226)"/>
<path d="M0 0 C-1.3072916 4.24672652 -2.93386168 8.01615535 -5.046875 11.921875 C-5.645 13.03046875 -6.243125 14.1390625 -6.859375 15.28125 C-7.48328125 16.4259375 -8.1071875 17.570625 -8.75 18.75 C-9.66265625 20.44382813 -9.66265625 20.44382813 -10.59375 22.171875 C-11.19703125 23.285625 -11.8003125 24.399375 -12.421875 25.546875 C-13.01790527 26.65240723 -13.61393555 27.75793945 -14.22802734 28.89697266 C-16 32 -16 32 -17.76025391 34.48974609 C-23.02046281 41.9731968 -22.89519621 49.33157059 -22.875 58.125 C-22.89316428 59.57295261 -22.91397856 61.02087451 -22.9375 62.46875 C-22.98885247 65.97934021 -23.00446613 69.48898453 -23 73 C-25.31 73 -27.62 73 -30 73 C-29.95174072 72.22736816 -29.90348145 71.45473633 -29.85375977 70.65869141 C-28.75750232 48.32800959 -33.22217462 35.47454818 -46 17 C-51 9.41452991 -51 9.41452991 -51 7 C-47.66965289 5.93712326 -45.30346201 5.77371486 -42 7 C-38.75027868 11.06215165 -36.40369805 15.45248465 -34.02246094 20.06298828 C-32.61760216 22.72443755 -31.03300158 25.26194466 -29.4375 27.8125 C-27 31.75609756 -27 31.75609756 -27 34 C-26.34 34 -25.68 34 -25 34 C-24.7328418 33.13793945 -24.46568359 32.27587891 -24.19042969 31.38769531 C-22.36135148 26.18254987 -19.77779096 21.41603016 -17.19726562 16.54882812 C-16.56434146 15.34692471 -15.9399997 14.14046355 -15.32421875 12.9296875 C-14.42778035 11.16732775 -13.50325554 9.41934379 -12.578125 7.671875 C-11.76456543 6.11098145 -11.76456543 6.11098145 -10.93457031 4.51855469 C-7.9641708 0.65148737 -4.74631448 0 0 0 Z " fill="#040404" transform="translate(357,201)"/>
<path d="M0 0 C0 2.31 0 4.62 0 7 C-2.33251437 7.34015835 -4.66573869 7.67222896 -7 8 C-8.9490625 8.2784375 -8.9490625 8.2784375 -10.9375 8.5625 C-15.04265306 9.14895044 -18.71123416 9 -23 9 C-23 15.93 -23 22.86 -23 30 C-21.411875 29.67 -19.82375 29.34 -18.1875 29 C-12.40793594 27.93415832 -6.85972147 27.79598649 -1 28 C-1 30.31 -1 32.62 -1 35 C-3.70784994 35.33772739 -6.41616996 35.67030687 -9.125 36 C-9.88554687 36.09539062 -10.64609375 36.19078125 -11.4296875 36.2890625 C-12.17734375 36.37929687 -12.925 36.46953125 -13.6953125 36.5625 C-14.37609863 36.64628906 -15.05688477 36.73007813 -15.75830078 36.81640625 C-18.49704567 37.04070773 -21.25208538 37 -24 37 C-24 48.55 -24 60.1 -24 72 C-27.465 72.495 -27.465 72.495 -31 73 C-32 72 -32 72 -32.03759766 68.13647461 C-32.0018094 66.39164544 -31.96015853 64.64693104 -31.9140625 62.90234375 C-31.89314041 61.96851868 -31.87221832 61.0346936 -31.85066223 60.0725708 C-31.78074605 57.0273958 -31.70312973 53.98247448 -31.625 50.9375 C-31.57540927 48.86955214 -31.52601124 46.80159966 -31.47680664 44.73364258 C-31.13698191 30.81527167 -30.69602229 16.90563685 -30 3 C-20.02919518 1.20769128 -10.15005569 -0.22555679 0 0 Z " fill="#050404" transform="translate(299,210)"/>
<path d="M0 0 C1.134375 0.020625 2.26875 0.04125 3.4375 0.0625 C3.55944354 23.0873156 3.37924398 46.05489305 2.4375 69.0625 C-0.2025 69.3925 -2.8425 69.7225 -5.5625 70.0625 C-5.45515606 61.08320849 -5.34255528 52.10400305 -5.22316074 43.12486362 C-5.16789364 38.95590984 -5.11446774 34.78694909 -5.06518555 30.61791992 C-5.01759765 26.59786106 -4.96525714 22.57789011 -4.90955925 18.55793571 C-4.88911034 17.02089553 -4.87040153 15.48383121 -4.85342598 13.94674873 C-4.8294378 11.80107994 -4.79937617 9.65557871 -4.76782227 7.51000977 C-4.75227798 6.28645279 -4.7367337 5.06289581 -4.72071838 3.80226135 C-4.48236694 -0.32511028 -4.27698988 0.07503491 0 0 Z " fill="#0C0C0C" transform="translate(251.5625,215.9375)"/>
<path d="M0 0 C2.31 0 4.62 0 7 0 C7 23.43 7 46.86 7 71 C1.67376499 68.3368825 1.67376499 68.3368825 0 66 C-0.36076355 63.13362122 -0.36076355 63.13362122 -0.34057617 59.60083008 C-0.34123329 58.63456947 -0.34123329 58.63456947 -0.34190369 57.64878845 C-0.33981559 55.52205979 -0.31648513 53.39612198 -0.29296875 51.26953125 C-0.28737283 49.79408702 -0.28310271 48.31863722 -0.28010559 46.84318542 C-0.26865637 42.96160466 -0.23918887 39.08036117 -0.20599365 35.19891357 C-0.17529424 31.23747317 -0.16160055 27.27597822 -0.14648438 23.31445312 C-0.11431894 15.54281506 -0.06312205 7.77145481 0 0 Z " fill="#7B7A77" transform="translate(134,232)"/>
<path d="M0 0 C-2.16579819 5.67770919 -5.00312731 10.97804937 -7.80273438 16.36352539 C-8.73716783 18.16279147 -9.66568965 19.96501835 -10.59375 21.76757812 C-11.19703125 22.93095703 -11.8003125 24.09433594 -12.421875 25.29296875 C-13.01790527 26.44539063 -13.61393555 27.5978125 -14.22802734 28.78515625 C-15.80275945 31.64215162 -17.53299043 34.21782279 -19.3984375 36.88671875 C-23.31549911 43.28855192 -22.89226434 50.36534607 -22.875 57.625 C-22.89316628 59.02477674 -22.91398117 60.42452171 -22.9375 61.82421875 C-22.98429358 65.21675312 -23.0044684 68.60721114 -23 72 C-26.465 72.495 -26.465 72.495 -30 73 C-31.76749087 42.06135643 -31.76749087 42.06135643 -22.52441406 29.31396484 C-20.61185192 26.41081558 -19.0508253 23.39222974 -17.4609375 20.30078125 C-17.15525848 19.70693634 -16.84957947 19.11309143 -16.53463745 18.50125122 C-14.9985048 15.51225292 -13.47524929 12.51750145 -11.96240234 9.51660156 C-11.39215332 8.42959961 -10.8219043 7.34259766 -10.234375 6.22265625 C-9.73131836 5.24047119 -9.22826172 4.25828613 -8.70996094 3.24633789 C-7 1 -7 1 -4.42285156 0.17358398 C-2.9512048 0.06814859 -1.47541886 0 0 0 Z " fill="#797875" transform="translate(364,200)"/>
<path d="M0 0 C6.32594663 4.30164371 11.50246156 9.38492228 16.84619141 14.81274414 C21.06395371 19.09024006 25.3720883 23.16483243 30 27 C30.598125 27.50273437 31.19625 28.00546875 31.8125 28.5234375 C33.20302989 29.68865005 34.60058054 30.84547895 36 32 C36.39832031 30.71222656 36.39832031 30.71222656 36.8046875 29.3984375 C38.01023801 25.97089192 39.47244386 22.85826202 41.125 19.625 C41.66382813 18.56539063 42.20265625 17.50578125 42.7578125 16.4140625 C43.16773438 15.61742187 43.57765625 14.82078125 44 14 C44.33 14 44.66 14 45 14 C45.02913072 18.37498593 45.04684286 22.74994674 45.0625 27.125 C45.07087891 28.3625 45.07925781 29.6 45.08789062 30.875 C45.09111328 32.07382812 45.09433594 33.27265625 45.09765625 34.5078125 C45.10289307 35.60754395 45.10812988 36.70727539 45.11352539 37.84033203 C45.0008558 40.97618105 44.58626376 43.92059383 44 47 C39.00910299 44.44252314 35.54077508 40.72702849 31.6875 36.75 C27.22205162 32.20706944 22.76294557 27.78157148 17.890625 23.671875 C14.56847658 20.73410739 11.51243845 17.52578842 8.4140625 14.35546875 C6.30185598 12.29452938 4.15805003 10.53018837 1.8125 8.75 C0.884375 7.8425 -0.04375 6.935 -1 6 C-0.9375 2.625 -0.9375 2.625 0 0 Z " fill="#A5A39E" transform="translate(82,239)"/>
<path d="M0 0 C-1.93678818 3.75474796 -3.87574032 7.50836807 -5.81665039 11.26098633 C-6.47576602 12.5360737 -7.13430339 13.81146017 -7.79223633 15.0871582 C-8.74145768 16.92739733 -9.69279665 18.76652843 -10.64453125 20.60546875 C-11.50075073 22.26292114 -11.50075073 22.26292114 -12.37426758 23.95385742 C-14 27 -14 27 -15.7097168 29.5871582 C-17.23040074 32.43085157 -17.48436801 33.81962136 -17 37 C-15.67088962 39.87566175 -15.67088962 39.87566175 -13.7890625 42.78125 C-12.78746094 44.41513672 -12.78746094 44.41513672 -11.765625 46.08203125 C-11.05269551 47.22173734 -10.33914801 48.36105705 -9.625 49.5 C-8.23676918 51.73631134 -6.85608295 53.97702927 -5.4765625 56.21875 C-4.85861816 57.20810547 -4.24067383 58.19746094 -3.60400391 59.21679688 C-2.13508965 61.76559787 -1.00934897 64.2420783 0 67 C-3.465 67.495 -3.465 67.495 -7 68 C-7.43868408 67.23856689 -7.87736816 66.47713379 -8.3293457 65.69262695 C-9.96717549 62.85030036 -11.60540352 60.00820408 -13.24389648 57.16625977 C-13.95108596 55.93946294 -14.65811957 54.71257625 -15.36499023 53.4855957 C-16.38483736 51.71541709 -17.40525657 49.94556931 -18.42578125 48.17578125 C-19.03848877 47.11270752 -19.65119629 46.04963379 -20.2824707 44.9543457 C-21.92353394 42.00942461 -21.92353394 42.00942461 -23.84838867 39.48901367 C-25 37 -25 37 -24.40478516 34.12060547 C-22.87218227 30.71606427 -21.26276501 27.37274727 -19.5234375 24.0703125 C-19.19332672 23.43511688 -18.86321594 22.79992126 -18.52310181 22.14547729 C-17.47783734 20.13648152 -16.42653337 18.13072039 -15.375 16.125 C-14.66105535 14.75541833 -13.94750964 13.38562861 -13.234375 12.015625 C-11.49418696 8.6746601 -9.74857888 5.33658046 -8 2 C-8.99 1.34 -9.98 0.68 -11 0 C-3.375 -1.125 -3.375 -1.125 0 0 Z " fill="#A4A29E" transform="translate(244,218)"/>
<path d="M0 0 C0.66 0 1.32 0 2 0 C2 0.66 2 1.32 2 2 C2.61875 2.268125 3.2375 2.53625 3.875 2.8125 C6 4 6 4 8 7 C8.1645813 9.06913757 8.1645813 9.06913757 8.04345703 11.47143555 C8.00326447 12.37214279 7.9630719 13.27285004 7.92166138 14.20085144 C7.86759125 15.16968765 7.81352112 16.13852386 7.7578125 17.13671875 C7.71059052 18.13129593 7.66336853 19.12587311 7.61471558 20.15058899 C7.46145144 23.33014102 7.2934028 26.5087173 7.125 29.6875 C7.01855742 31.84174898 6.91307661 33.99604571 6.80859375 36.15039062 C6.55022406 41.43419873 6.27970903 46.71728091 6 52 C4.02 52 2.04 52 0 52 C0 34.84 0 17.68 0 0 Z " fill="#A09E99" transform="translate(81,256)"/>
<path d="M0 0 C-0.99 0 -1.98 0 -3 0 C-3 11.22 -3 22.44 -3 34 C-5.31 34 -7.62 34 -10 34 C-10 22.78 -10 11.56 -10 0 C-3.25 -1.125 -3.25 -1.125 0 0 Z " fill="#777673" transform="translate(285,247)"/>
<path d="M0 0 C1.98003973 3.45783417 3.95888344 6.91635131 5.9375 10.375 C6.50146484 11.35984375 7.06542969 12.3446875 7.64648438 13.359375 C8.18466797 14.30039063 8.72285156 15.24140625 9.27734375 16.2109375 C9.77484131 17.08024902 10.27233887 17.94956055 10.78491211 18.84521484 C11.55581337 20.21229833 12.29811596 21.59623193 13 23 C12.06553465 25.03144641 11.06775224 27.03533587 10 29 C9.34 29 8.68 29 8 29 C7.57178955 28.21761963 7.1435791 27.43523926 6.70239258 26.62915039 C5.1035956 23.72713417 3.49011935 20.83437878 1.8659668 17.9465332 C1.16654223 16.69567356 0.47311627 15.44143989 -0.21411133 14.18383789 C-1.20391609 12.37503222 -2.21476713 10.57951798 -3.23046875 8.78515625 C-3.83270264 7.70113525 -4.43493652 6.61711426 -5.05541992 5.50024414 C-6.78994258 2.781261 -6.78994258 2.781261 -9.7355957 2.13842773 C-10.48284912 2.09274658 -11.23010254 2.04706543 -12 2 C-12 1.67 -12 1.34 -12 1 C-7.94863773 0.36449219 -4.09744212 -0.05661405 0 0 Z " fill="#7A7976" transform="translate(322,206)"/>
<path d="M0 0 C-0.99 0 -1.98 0 -3 0 C-3 8.91 -3 17.82 -3 27 C-5.31 27 -7.62 27 -10 27 C-10 18.09 -10 9.18 -10 0 C-3.25 -1.125 -3.25 -1.125 0 0 Z " fill="#747371" transform="translate(165,264)"/>
<path d="M0 0 C2.2477975 2.05233685 3.0022242 3.00667261 4 6 C3.02783203 8.34423828 3.02783203 8.34423828 1.5078125 11.0703125 C0.96769531 12.04871094 0.42757812 13.02710938 -0.12890625 14.03515625 C-0.99322266 15.56462891 -0.99322266 15.56462891 -1.875 17.125 C-2.72771484 18.66607422 -2.72771484 18.66607422 -3.59765625 20.23828125 C-7.80687314 27.80687314 -7.80687314 27.80687314 -9 29 C-10.66617115 29.04063832 -12.33388095 29.042721 -14 29 C-12.72287446 24.89306101 -11.18709006 21.18406415 -9.1796875 17.3828125 C-8.64472656 16.36445313 -8.10976562 15.34609375 -7.55859375 14.296875 C-7.00300781 13.25015625 -6.44742188 12.2034375 -5.875 11.125 C-5.31167969 10.05507813 -4.74835938 8.98515625 -4.16796875 7.8828125 C-2.78265261 5.25305983 -1.39322404 2.62556917 0 0 Z " fill="#A2A09B" transform="translate(214,262)"/>
<path d="M0 0 C2.97 0 5.94 0 9 0 C9 9.57 9 19.14 9 29 C7 28 7 28 5.7109375 24.7890625 C5.2528462 23.4052065 4.80828798 22.01682132 4.375 20.625 C4.14917236 19.90634766 3.92334473 19.18769531 3.69067383 18.44726562 C1.95050838 12.56494233 1.4153055 7.13279564 2 1 C1.34 0.67 0.68 0.34 0 0 Z " fill="#807F7C" transform="translate(253,215)"/>
<path d="M0 0 C2.31 0 4.62 0 7 0 C7 6.93 7 13.86 7 21 C4.69 21 2.38 21 0 21 C0 14.07 0 7.14 0 0 Z " fill="#7A7976" transform="translate(156,236)"/>
<path d="M0 0 C2.31 0 4.62 0 7 0 C7 6.93 7 13.86 7 21 C4.69 21 2.38 21 0 21 C0 14.07 0 7.14 0 0 Z " fill="#7A7976" transform="translate(276,219)"/>
<path d="M0 0 C5.02191478 7.66319867 5.02191478 7.66319867 4.9375 12.8125 C4.16003179 15.45589192 3.26500708 17.58021468 2 20 C1.75354736 19.49025635 1.50709473 18.9805127 1.25317383 18.45532227 C0.12473519 16.14814586 -1.03084293 13.85565055 -2.1875 11.5625 C-2.57486328 10.76005859 -2.96222656 9.95761719 -3.36132812 9.13085938 C-5.55761419 4.47524832 -5.55761419 4.47524832 -9.80078125 1.96484375 C-10.52652344 1.97644531 -11.25226563 1.98804688 -12 2 C-12 1.67 -12 1.34 -12 1 C-7.9472484 0.01751476 -4.16138263 -0.08159574 0 0 Z " fill="#7A7976" transform="translate(209,222)"/>
<path d="M0 0 C0.33 0 0.66 0 1 0 C1.16311941 8.71782637 0.65655389 17.31238511 0 26 C-1.15518918 25.09515208 -2.29885406 24.1755794 -3.4375 23.25 C-4.07558594 22.73953125 -4.71367188 22.2290625 -5.37109375 21.703125 C-7.26595341 19.72192881 -7.6285782 18.69096325 -8 16 C-7.37915039 14.07714844 -7.37915039 14.07714844 -6.34765625 12.109375 C-5.98349609 11.40039062 -5.61933594 10.69140625 -5.24414062 9.9609375 C-4.85419922 9.23132813 -4.46425781 8.50171875 -4.0625 7.75 C-3.67642578 7.00492187 -3.29035156 6.25984375 -2.89257812 5.4921875 C-1.93909834 3.65585606 -0.97094323 1.82715793 0 0 Z " fill="#A5A4A0" transform="translate(126,253)"/>
<path d="M0 0 C0.33 0 0.66 0 1 0 C1.02716824 2.54173977 1.04691969 5.08318415 1.0625 7.625 C1.07087891 8.33785156 1.07925781 9.05070312 1.08789062 9.78515625 C1.10710296 13.97344438 0.8267327 17.8728462 0 22 C-4.85967024 19.49653351 -8.27856704 15.91447559 -12 12 C-11.01 10.35 -10.02 8.7 -9 7 C-7.85373678 7.97866338 -6.70800212 8.95794587 -5.5625 9.9375 C-4.92441406 10.48277344 -4.28632812 11.02804687 -3.62890625 11.58984375 C-2.73008851 12.36795695 -1.84063472 13.15936528 -1 14 C-0.67 9.38 -0.34 4.76 0 0 Z " fill="#767572" transform="translate(126,264)"/>
<path d="M0 0 C0 2.31 0 4.62 0 7 C-2.64 7.66 -5.28 8.32 -8 9 C-8 6.69 -8 4.38 -8 2 C-8.99 1.67 -9.98 1.34 -11 1 C-7.27569643 0.30710631 -3.78916254 -0.11144596 0 0 Z " fill="#797875" transform="translate(190,252)"/>
<path d="M0 0 C0 2.31 0 4.62 0 7 C-2.31 7.33 -4.62 7.66 -7 8 C-7 6.02 -7 4.04 -7 2 C-8.32 1.67 -9.64 1.34 -11 1 C-7.27569643 0.30710631 -3.78916254 -0.11144596 0 0 Z " fill="#757471" transform="translate(305,236)"/>
<path d="M0 0 C0.04241723 2.33294775 0.04092937 4.66702567 0 7 C-1 8 -1 8 -4.0625 8.0625 C-5.031875 8.041875 -6.00125 8.02125 -7 8 C-7 6.02 -7 4.04 -7 2 C-7.66 1.67 -8.32 1.34 -9 1 C-5.94152152 0.45627049 -3.11227195 0 0 0 Z " fill="#807F7C" transform="translate(191,224)"/>
<path d="M0 0 C1.04449911 3.13349732 0.93423645 3.98968256 0 7 C-2.31 7.33 -4.62 7.66 -7 8 C-7 6.02 -7 4.04 -7 2 C-8.32 1.67 -9.64 1.34 -11 1 C-9.54182203 0.83197949 -8.0834516 0.66562857 -6.625 0.5 C-5.81289063 0.4071875 -5.00078125 0.314375 -4.1640625 0.21875 C-2 0 -2 0 0 0 Z " fill="#797875" transform="translate(306,208)"/>
<path d="M0 0 C2 3 2 3 2.5 5.125 C2.665 5.74375 2.83 6.3625 3 7 C3.66 7.33 4.32 7.66 5 8 C3.68 10.31 2.36 12.62 1 15 C-0.5625 13.4375 -0.5625 13.4375 -2 11 C-1.72998029 7.21972412 -1.02088555 3.64601983 0 0 Z " fill="#A2A09B" transform="translate(214,232)"/>
<path d="M0 0 C1.98 0 3.96 0 6 0 C5.34 2.31 4.68 4.62 4 7 C3.34 7 2.68 7 2 7 C2 5.02 2 3.04 2 1 C1.34 0.67 0.68 0.34 0 0 Z " fill="#81807C" transform="translate(181,287)"/>
</svg>
